<svg xmlns="http://www.w3.org/2000/svg" width="32" height="32" viewBox="0 0 32 32" fill="none">
  <path d="M15.7847 2C12.2643 2 9.33691 2.52613 7.00268 3.5784C4.66846 4.63066 2.91778 6.07752 1.75067 7.91898C0.583554 9.76045 0 11.8751 0 14.2629C0 15.558 0.181761 16.8126 0.545287 18.0268C0.908815 19.2207 1.48281 20.3438 2.26726 21.3961C3.05171 22.4281 4.06577 23.3387 5.30941 24.1279C6.55306 24.8969 8.04543 25.4938 9.78654 25.9188C11.5085 26.364 14.8523 26.5865 15.7847 26.5865C16.5829 26.5865 16.5829 16.934 15.756 16.934C15.2395 16.934 14.7898 16.8835 14.4072 16.7823C14.0054 16.6811 13.6705 16.5496 13.4027 16.3877C13.1157 16.2056 12.8861 16.0032 12.7139 15.7806C12.5226 15.5378 12.3886 15.2949 12.3121 15.0521C12.2356 14.7891 12.1973 14.526 12.1973 14.2629C12.1973 13.9594 12.2643 13.6558 12.3982 13.3523C12.513 13.0488 12.7043 12.7756 12.9722 12.5328C13.24 12.2697 13.6036 12.0572 14.0628 11.8953C14.522 11.7334 15.0864 11.6525 15.756 11.6525C16.4257 11.6525 16.9997 11.7334 17.478 11.8953C17.9372 12.037 18.3103 12.2393 18.5973 12.5024C18.8652 12.7452 19.0661 13.0285 19.2 13.3523C19.3148 13.6558 19.3722 14.2933 19.3722 14.2933C19.3722 15.4507 31.5695 15.4568 31.5695 14.2629C31.5695 13.069 31.426 11.9358 31.139 10.8633C30.8329 9.7908 30.3928 8.79924 29.8188 7.88863C29.2257 6.97802 28.4986 6.16858 27.6376 5.46033C26.7575 4.73184 25.7339 4.11465 24.5668 3.60875C23.3997 3.08262 22.0891 2.68802 20.635 2.42495C19.1617 2.14165 17.545 2 15.7847 2Z" fill="#3395FF"/>
  <path fill-rule="evenodd" clip-rule="evenodd" d="M18.1883 17.0042H19.1749H28.8764C29.483 17.0042 29.9855 17.1544 30.3839 17.4547C30.7823 17.7435 31.081 18.119 31.2802 18.581C31.4885 19.0431 31.5926 19.5283 31.5926 20.0366C31.5926 20.5449 31.4885 21.0416 31.2802 21.5268C31.072 22.0004 30.7551 22.3874 30.3296 22.6877C29.9131 22.9881 29.388 23.1382 28.7542 23.1382H28.7406V23.1556H28.7542C29.4876 23.1556 30.0942 23.3231 30.574 23.6581C31.0539 23.9931 31.4115 24.4205 31.6469 24.9403C31.8823 25.4601 32 26.0089 32 26.5864C32 27.0139 31.9321 27.4297 31.7963 27.834C31.6695 28.2384 31.4749 28.608 31.2123 28.943C30.9497 29.2665 30.6238 29.5264 30.2345 29.7228C29.8452 29.9076 29.3925 30 28.8764 30H18.1883V27.6608V25.3042V22.965V20.6084V18.038V17.0042ZM23.5392 24.2125V23.8313L23.5527 23.814H25.6034C25.703 23.814 25.7891 23.8371 25.8615 23.8833C25.943 23.918 26.0063 23.9757 26.0516 24.0566C26.1059 24.1259 26.1467 24.2068 26.1738 24.2992C26.201 24.38 26.2146 24.4725 26.2146 24.5764C26.2146 24.7844 26.1512 24.9692 26.0245 25.1309C25.9068 25.2926 25.7257 25.3735 25.4812 25.3735H23.5527H23.5392V25.3562V25.1136V24.871V24.5938V24.2125ZM23.5392 21.4055C23.5392 21.3939 23.5437 21.3881 23.5527 21.3881H25.5355C25.7347 21.3881 25.8841 21.469 25.9837 21.6307C26.0924 21.7809 26.1467 21.9542 26.1467 22.1506C26.1467 22.2892 26.1195 22.422 26.0652 22.5491C26.0109 22.6646 25.9294 22.7628 25.8207 22.8437C25.7121 22.913 25.5763 22.9476 25.4133 22.9476H23.5527H23.5392V22.9303V22.5664V22.1679V21.908V21.648V21.4055Z" fill="#FF9500"/>
</svg>