<svg xmlns="http://www.w3.org/2000/svg" width="120" height="44" viewBox="0 0 120 44" fill="none">
    <path
        d="M43.0597 36.0453C42.0797 35.6382 41.2314 34.9682 40.6083 34.1093C40.0077 33.254 39.6954 32.2294 39.7169 31.1844H43.1154C43.167 31.9733 43.5213 32.7118 44.1044 33.2457C44.6894 33.7845 45.5112 34.0539 46.5697 34.0537C47.6653 34.0537 48.5196 33.789 49.1325 33.2597C49.43 33.0097 49.6672 32.6957 49.8264 32.3412C49.9856 31.9867 50.0626 31.6008 50.0518 31.2124C50.076 30.6288 49.8711 30.0589 49.4807 29.6244C49.0846 29.2057 48.5989 28.8819 48.0601 28.6772C47.2899 28.3911 46.504 28.1493 45.7062 27.9531C44.6566 27.6903 43.6277 27.3504 42.628 26.9363C41.8284 26.5848 41.1329 26.0332 40.6085 25.3346C40.0513 24.6103 39.7727 23.6447 39.7727 22.4376C39.7503 21.4007 40.0416 20.3812 40.6085 19.5126C41.1866 18.6594 41.9992 17.9919 42.9484 17.5906C44.0491 17.1254 45.2356 16.8976 46.4303 16.9219C48.3058 16.9219 49.8426 17.3908 51.0405 18.3287C52.2384 19.2667 52.9023 20.5527 53.0323 22.1867H49.5224C49.4915 21.8315 49.3862 21.4868 49.2135 21.1748C49.0407 20.8629 48.8043 20.5908 48.5196 20.3761C47.9067 19.8747 47.0989 19.624 46.096 19.624C45.1859 19.624 44.4431 19.8562 43.8675 20.3204C43.2917 20.7849 43.0038 21.4535 43.004 22.326C42.9938 22.5936 43.0366 22.8605 43.1298 23.1114C43.223 23.3624 43.3648 23.5925 43.5471 23.7886C43.9357 24.1868 44.4062 24.4958 44.9261 24.694C45.6733 24.9779 46.4359 25.2196 47.2103 25.4181C48.278 25.6983 49.3252 26.052 50.3442 26.4767C51.159 26.8352 51.8686 27.3962 52.4055 28.1064C52.9718 28.8401 53.255 29.8197 53.2552 31.0452C53.2552 32.0295 52.9803 32.9944 52.4613 33.8308C51.9005 34.7327 51.1 35.4609 50.1492 35.9339C49.1367 36.4631 47.9435 36.7278 46.5696 36.7279C45.3649 36.7469 44.1694 36.5144 43.0597 36.0453Z"
        fill="black" />
    <path
        d="M60.9985 21.6575C61.9733 21.1638 63.0538 20.9152 64.1463 20.9332C65.437 20.9172 66.7067 21.2605 67.8136 21.9246C68.9204 22.5887 69.8208 23.5475 70.4141 24.6939C71.0635 25.9595 71.3889 27.3665 71.361 28.7888C71.3856 30.224 71.0606 31.6437 70.4141 32.9253C69.8254 34.0952 68.9236 35.0788 67.8093 35.7667C66.7083 36.4436 65.4387 36.7961 64.1463 36.7835C63.064 36.8039 61.9931 36.56 61.0264 36.0731C60.1699 35.6428 59.4113 35.0407 58.7978 34.3043V43.8312H55.6221V21.1838H58.7978V23.4402C59.3904 22.6904 60.142 22.0815 60.9985 21.6575ZM67.4753 26.0449C67.0741 25.3105 66.4759 24.7027 65.7481 24.2898C65.0469 23.8944 64.2549 23.6881 63.4499 23.6911C62.6523 23.6909 61.8688 23.9024 61.1796 24.3039C60.4501 24.727 59.8522 25.3442 59.4523 26.0868C58.9994 26.934 58.7738 27.8841 58.7977 28.8445C58.775 29.8092 59.0004 30.7636 59.4523 31.6163C59.8371 32.343 60.4124 32.9513 61.1167 33.3758C61.821 33.8003 62.6275 34.025 63.4498 34.0259C64.2584 34.0281 65.0526 33.8115 65.7481 33.399C66.4812 32.962 67.079 32.3305 67.4752 31.5745C67.9257 30.7163 68.1509 29.7578 68.1298 28.7889C68.1545 27.8328 67.9289 26.8868 67.4753 26.0449Z"
        fill="black" />
    <path
        d="M73.0184 24.6939C73.6164 23.5484 74.5198 22.5908 75.6285 21.9271C76.7372 21.2633 78.008 20.9193 79.3001 20.9332C80.3962 20.9078 81.4818 21.1517 82.4617 21.6435C83.3023 22.0678 84.0394 22.6717 84.6206 23.4125V21.1839H87.8241V36.5329H84.6206V34.2486C84.0348 35.0121 83.282 35.6314 82.42 36.0593C81.3526 36.5814 80.1715 36.8282 78.9844 36.7771C77.7972 36.726 76.6416 36.3787 75.623 35.7668C74.5129 35.0738 73.6124 34.0915 73.0183 32.9254C72.3627 31.6466 72.0326 30.2257 72.0573 28.7888C72.0293 27.3649 72.3598 25.9567 73.0184 24.6939ZM83.9661 26.0867C83.5684 25.3472 82.976 24.7306 82.2529 24.3038C81.56 23.8989 80.7711 23.6873 79.9686 23.6911C79.1514 23.6838 78.3477 23.899 77.6435 24.3136C76.9393 24.7283 76.3612 25.3267 75.9711 26.0449C75.5172 26.8867 75.2915 27.8327 75.3166 28.7888C75.2951 29.7578 75.5203 30.7164 75.9711 31.5744C76.367 32.3306 76.9649 32.9623 77.6983 33.399C78.3846 33.809 79.1691 34.0256 79.9686 34.0258C80.7712 34.0298 81.5601 33.8181 82.2529 33.4129C82.9787 32.9835 83.5716 32.3617 83.9661 31.6162C84.4177 30.7635 84.6431 29.8091 84.6206 28.8444C84.6442 27.8841 84.4187 26.934 83.9661 26.0867Z"
        fill="black" />
    <path
        d="M90.5123 24.68C91.116 23.5208 92.0392 22.5588 93.1726 21.9082C94.3633 21.2434 95.7092 20.9069 97.0726 20.9332C98.9293 20.9332 100.466 21.3743 101.683 22.2564C102.899 23.1387 103.721 24.3968 104.148 26.0309H100.722C100.474 25.311 100.006 24.6873 99.3846 24.2482C98.7718 23.8211 98.0012 23.6075 97.0726 23.6074C95.7723 23.6074 94.737 24.0671 93.9666 24.9864C93.1956 25.9056 92.8102 27.1916 92.8105 28.8444C92.8105 30.4976 93.1958 31.7883 93.9666 32.7165C94.7369 33.6453 95.7722 34.1096 97.0726 34.1093C98.9111 34.1093 100.128 33.3015 100.722 31.6858H104.148C103.753 33.1714 102.87 34.481 101.641 35.4047C100.415 36.3239 98.8925 36.7835 97.0726 36.7835C95.7074 36.8099 94.3603 36.4683 93.1726 35.7946C92.0403 35.1362 91.1179 34.1704 90.5123 33.009C89.8715 31.8111 89.5512 30.4229 89.5513 28.8444C89.5513 27.2663 89.8717 25.8782 90.5123 24.68Z"
        fill="black" />
    <path
        d="M119.887 30.0423H108.16C108.252 31.2679 108.707 32.2522 109.525 32.9951C110.347 33.74 111.424 34.1391 112.533 34.1093C114.241 34.1093 115.449 33.3943 116.154 31.9643H119.581C119.129 33.3583 118.246 34.5728 117.06 35.4325C115.843 36.3334 114.334 36.7837 112.533 36.7835C111.155 36.8062 109.795 36.4651 108.591 35.7946C107.437 35.1421 106.491 34.1764 105.861 33.009C105.202 31.8111 104.872 30.4229 104.873 28.8444C104.873 27.2663 105.193 25.8781 105.834 24.6799C106.445 23.5124 107.384 22.5489 108.536 21.9081C109.761 21.242 111.139 20.906 112.533 20.9332C113.884 20.9091 115.218 21.2354 116.405 21.8802C117.523 22.4967 118.441 23.4198 119.052 24.5407C119.7 25.7517 120.026 27.109 119.999 28.4823C120.002 29.0044 119.965 29.526 119.887 30.0423ZM116.684 27.4795C116.665 26.3095 116.247 25.3716 115.43 24.666C114.613 23.9604 113.601 23.6075 112.394 23.6074C111.357 23.5853 110.351 23.9588 109.58 24.6521C108.8 25.3484 108.336 26.2909 108.187 27.4795H116.684Z"
        fill="black" />
    <path
        d="M45.6694 12.0377C50.2476 8.10065 55.6752 5.10031 61.4541 3.0663C73.1826 -1.01933 85.9476 -1.02218 97.6779 3.05821C100.564 4.06834 103.356 5.33085 106.021 6.83109C106.676 7.22186 107.335 7.59987 107.98 7.99894C108.616 8.41805 109.255 8.82583 109.879 9.25485C110.495 9.6984 111.105 10.1461 111.71 10.5979C112.296 11.0799 112.887 11.5479 113.46 12.0377C112.772 11.7213 112.102 11.3831 111.426 11.059L109.388 10.1232L107.337 9.2433L105.271 8.42149C102.523 7.36713 99.716 6.47551 96.8637 5.75129C85.5132 2.85263 73.6163 2.85222 62.2656 5.75008C59.4131 6.47375 56.6058 7.36556 53.8586 8.42086C53.1726 8.6953 52.4759 8.95341 51.7931 9.24344L50.7677 9.68058C50.4275 9.83045 50.0769 9.96259 49.7419 10.1244L48.7243 10.5908C48.3852 10.7478 48.0369 10.8909 47.7043 11.0612L45.6694 12.0377Z"
        fill="url(#paint0_linear_246_2527)" />
    <path
        d="M16.1206 36.7377C15.6 36.7366 15.0905 36.5876 14.6514 36.308C14.2124 36.0283 13.8619 35.6296 13.6408 35.1584L6.95086 20.8118C6.75698 20.3954 6.67111 19.9368 6.70118 19.4784C6.73124 19.02 6.87628 18.5765 7.1229 18.1889C7.36952 17.8014 7.70978 17.4821 8.11229 17.2607C8.5148 17.0393 8.96659 16.9228 9.42598 16.9221C9.94652 16.9232 10.456 17.0722 10.8951 17.3518C11.3342 17.6314 11.6847 18.0301 11.9058 18.5013L18.5957 32.8479C18.7896 33.2643 18.8756 33.723 18.8455 34.1814C18.8155 34.6398 18.6704 35.0833 18.4238 35.4709C18.1772 35.8585 17.8369 36.1777 17.4343 36.3991C17.0318 36.6205 16.58 36.737 16.1206 36.7377Z"
        fill="url(#paint1_linear_246_2527)" />
    <path
        d="M2.73363 36.7376C4.24337 36.7376 5.46726 35.5137 5.46726 34.0039C5.46726 32.4942 4.24337 31.2703 2.73363 31.2703C1.22389 31.2703 0 32.4942 0 34.0039C0 35.5137 1.22389 36.7376 2.73363 36.7376Z"
        fill="url(#paint2_linear_246_2527)" />
    <path
        d="M25.9188 25.6245V34.0035C25.9188 34.3625 25.8481 34.7179 25.7108 35.0496C25.5734 35.3812 25.372 35.6826 25.1182 35.9364C24.8644 36.1903 24.563 36.3916 24.2314 36.529C23.8997 36.6664 23.5442 36.7371 23.1853 36.7371C22.8263 36.7371 22.4708 36.6664 22.1392 36.529C21.8075 36.3916 21.5061 36.1903 21.2523 35.9364C20.9985 35.6826 20.7971 35.3812 20.6597 35.0496C20.5224 34.7179 20.4517 34.3625 20.4517 34.0035V27.834C20.4521 27.2484 20.6848 26.687 21.0987 26.2728C21.5126 25.8586 22.0738 25.6255 22.6594 25.6245H25.9188Z"
        fill="url(#paint3_linear_246_2527)" />
    <path
        d="M35.7079 23.4821C35.7059 25.2212 35.0141 26.8885 33.7844 28.1182C32.5547 29.3479 30.8874 30.0397 29.1483 30.0417H22.6594C22.0747 30.0401 21.5145 29.8067 21.1016 29.3926C20.6888 28.9786 20.4569 28.4178 20.4569 27.8331C20.4569 27.2484 20.6888 26.6876 21.1016 26.2736C21.5145 25.8596 22.0747 25.6262 22.6594 25.6245H29.1483C29.7168 25.6245 30.2619 25.3987 30.6639 24.9968C31.0658 24.5949 31.2916 24.0497 31.2916 23.4813C31.2916 22.9128 31.0658 22.3677 30.6639 21.9657C30.2619 21.5638 29.7168 21.338 29.1483 21.338H22.6594C22.0738 21.338 21.5123 21.1054 21.0983 20.6914C20.6843 20.2773 20.4517 19.7158 20.4517 19.1303C20.4517 18.5448 20.6843 17.9832 21.0983 17.5692C21.5123 17.1552 22.0738 16.9226 22.6594 16.9226H29.1483C30.8875 16.9243 32.555 17.6159 33.7848 18.8457C35.0145 20.0755 35.7062 21.743 35.7079 23.4821Z"
        fill="url(#paint4_linear_246_2527)" />
    <defs>
        <linearGradient id="paint0_linear_246_2527" x1="45.6694" y1="6.01879" x2="113.46" y2="6.01879"
            gradientUnits="userSpaceOnUse">
            <stop stop-color="#2A83FF" />
            <stop offset="0.2003" stop-color="#2A7FFF" />
            <stop offset="0.4165" stop-color="#2A72FF" />
            <stop offset="0.64" stop-color="#2A5CFF" />
            <stop offset="0.8672" stop-color="#2A3EFF" />
            <stop offset="1" stop-color="#2A29FF" />
        </linearGradient>
        <linearGradient id="paint1_linear_246_2527" x1="6.69329" y1="26.8305" x2="18.8516" y2="26.8306"
            gradientUnits="userSpaceOnUse">
            <stop stop-color="#2A83FF" />
            <stop offset="0.2003" stop-color="#2A7FFF" />
            <stop offset="0.4165" stop-color="#2A72FF" />
            <stop offset="0.64" stop-color="#2A5CFF" />
            <stop offset="0.8672" stop-color="#2A3EFF" />
            <stop offset="1" stop-color="#2A29FF" />
        </linearGradient>
        <linearGradient id="paint2_linear_246_2527" x1="0" y1="34.0039" x2="5.46726" y2="34.0039"
            gradientUnits="userSpaceOnUse">
            <stop stop-color="#2A83FF" />
            <stop offset="0.2003" stop-color="#2A7FFF" />
            <stop offset="0.4165" stop-color="#2A72FF" />
            <stop offset="0.64" stop-color="#2A5CFF" />
            <stop offset="0.8672" stop-color="#2A3EFF" />
            <stop offset="1" stop-color="#2A29FF" />
        </linearGradient>
        <linearGradient id="paint3_linear_246_2527" x1="20.4517" y1="31.1808" x2="25.9188" y2="31.1808"
            gradientUnits="userSpaceOnUse">
            <stop stop-color="#2A83FF" />
            <stop offset="0.2003" stop-color="#2A7FFF" />
            <stop offset="0.4165" stop-color="#2A72FF" />
            <stop offset="0.64" stop-color="#2A5CFF" />
            <stop offset="0.8672" stop-color="#2A3EFF" />
            <stop offset="1" stop-color="#2A29FF" />
        </linearGradient>
        <linearGradient id="paint4_linear_246_2527" x1="20.4517" y1="23.4821" x2="35.7079" y2="23.4821"
            gradientUnits="userSpaceOnUse">
            <stop stop-color="#2A83FF" />
            <stop offset="0.2003" stop-color="#2A7FFF" />
            <stop offset="0.4165" stop-color="#2A72FF" />
            <stop offset="0.64" stop-color="#2A5CFF" />
            <stop offset="0.8672" stop-color="#2A3EFF" />
            <stop offset="1" stop-color="#2A29FF" />
        </linearGradient>
    </defs>
</svg>