<svg xmlns="http://www.w3.org/2000/svg" width="24" height="24" viewBox="0 0 24 24" fill="none">
  <path fill-rule="evenodd" clip-rule="evenodd" d="M2 17V20H5V17.4329C3.25852 17.2072 2 17 2 17Z" stroke="#42526D"
    stroke-width="2" stroke-linecap="round" stroke-linejoin="round" />
  <path fill-rule="evenodd" clip-rule="evenodd" d="M19 17.4329V20H22V17C22 17 20.7415 17.2072 19 17.4329Z"
    stroke="#42526D" stroke-width="2" stroke-linecap="round" stroke-linejoin="round" />
  <path
    d="M6 15C6.55228 15 7 14.5523 7 14C7 13.4477 6.55228 13 6 13C5.44772 13 5 13.4477 5 14C5 14.5523 5.44772 15 6 15Z"
    stroke="#42526D" stroke-width="2" />
  <path
    d="M18 15C18.5523 15 19 14.5523 19 14C19 13.4477 18.5523 13 18 13C17.4477 13 17 13.4477 17 14C17 14.5523 17.4477 15 18 15Z"
    stroke="#42526D" stroke-width="2" />
  <path
    d="M17 17.6716C15.3263 17.8529 13.505 18 12 18C10.495 18 8.67367 17.8529 7 17.6716V17.6L9 15H15L17 17.6V17.6716Z"
    stroke="#42526D" stroke-width="2" />
  <path d="M6 4H18L20 9L22 12V17C22 17 15.9247 18 12 18C8.07528 18 2 17 2 17V12L4 9L6 4Z" stroke="#42526D"
    stroke-width="2" />
  <path d="M2 9H22" stroke="#42526D" stroke-width="2" stroke-linecap="round" />
</svg>