<svg width="22" height="22" viewBox="0 0 22 22" fill="none" xmlns="http://www.w3.org/2000/svg">
<path d="M20.5755 3.19512C20.7517 3.02512 20.8923 2.82174 20.989 2.59684C21.0857 2.37194 21.1367 2.13003 21.1389 1.88522C21.1412 1.64041 21.0947 1.3976 21.0021 1.17097C20.9095 0.944337 20.7727 0.738415 20.5996 0.56522C20.4266 0.392024 20.2208 0.255023 19.9942 0.162211C19.7677 0.0693988 19.5249 0.0226346 19.2801 0.0246458C19.0353 0.0266569 18.7934 0.0774035 18.5684 0.173925C18.3434 0.270447 18.1399 0.41081 17.9697 0.586825L10.5799 7.97412L3.19266 0.586825C3.02386 0.405678 2.82031 0.260385 2.59415 0.159613C2.36798 0.0588415 2.12384 0.00465486 1.87628 0.000286936C1.62871 -0.00408099 1.38281 0.0414593 1.15323 0.13419C0.923652 0.226921 0.715102 0.364943 0.540023 0.540023C0.364943 0.715102 0.226921 0.92365 0.13419 1.15323C0.0414593 1.38281 -0.00408099 1.62872 0.000286936 1.87628C0.00465486 2.12384 0.0588415 2.36798 0.159613 2.59415C0.260385 2.82031 0.405678 3.02386 0.586825 3.19266L7.9692 10.5824L0.581908 17.9697C0.256228 18.3192 0.0789251 18.7815 0.0873528 19.2592C0.0957804 19.7368 0.289281 20.1925 0.627088 20.5304C0.964895 20.8682 1.42063 21.0617 1.89829 21.0701C2.37595 21.0785 2.83823 20.9012 3.18774 20.5755L10.5799 13.1882L17.9672 20.578C18.3168 20.9037 18.779 21.081 19.2567 21.0725C19.7344 21.0641 20.1901 20.8706 20.5279 20.5328C20.8657 20.195 21.0592 19.7393 21.0676 19.2616C21.0761 18.784 20.8988 18.3217 20.5731 17.9722L13.1907 10.5824L20.5755 3.19512Z" fill="black"/>
</svg>
