<svg width="20" height="20" viewBox="0 0 20 20" fill="none" xmlns="http://www.w3.org/2000/svg">
<path d="M14.998 7.08151L9.9996 11.9534L5.00116 7.08151C4.91188 6.99456 4.79219 6.9459 4.66756 6.9459C4.54294 6.9459 4.42325 6.99456 4.33397 7.08151C4.2905 7.12374 4.25595 7.17426 4.23235 7.23008C4.20875 7.28591 4.19659 7.3459 4.19659 7.40651C4.19659 7.46711 4.20875 7.5271 4.23235 7.58293C4.25595 7.63875 4.2905 7.68927 4.33397 7.73151L9.65116 12.9143C9.74448 13.005 9.86947 13.0557 9.9996 13.0557C10.1297 13.0557 10.2547 13.005 10.348 12.9143L15.6652 7.73151C15.7089 7.68925 15.7437 7.63863 15.7674 7.58266C15.7912 7.52669 15.8034 7.46652 15.8034 7.40572C15.8034 7.34493 15.7912 7.28476 15.7674 7.22879C15.7437 7.17282 15.7089 7.1222 15.6652 7.07994C15.5759 6.99299 15.4562 6.94434 15.3316 6.94434C15.207 6.94434 15.0873 6.99299 14.998 7.07994V7.08151Z" fill="white"/>
</svg>
