<svg xmlns="http://www.w3.org/2000/svg" width="16" height="16" viewBox="0 0 16 16" fill="none">
    <path
        d="M6.66688 2.66683H4.80021C4.05347 2.66683 3.67983 2.66683 3.39461 2.81215C3.14373 2.93999 2.9399 3.14381 2.81207 3.39469C2.66675 3.67991 2.66675 4.05356 2.66675 4.80029V11.2003C2.66675 11.947 2.66675 12.3202 2.81207 12.6054C2.9399 12.8563 3.14373 13.0605 3.39461 13.1883C3.67955 13.3335 4.05274 13.3335 4.79802 13.3335H11.2021C11.9474 13.3335 12.3201 13.3335 12.605 13.1883C12.8559 13.0605 13.0604 12.8561 13.1882 12.6052C13.3334 12.3203 13.3334 11.9475 13.3334 11.2022V9.3335M10.6667 3.3335L6.66675 7.3335V9.3335H8.66675L12.6667 5.3335M10.6667 3.3335L12.6667 1.3335L14.6667 3.3335L12.6667 5.3335M10.6667 3.3335L12.6667 5.3335"
        stroke="#98A1B0" stroke-linecap="round" stroke-linejoin="round" />
</svg>