<svg width="24" height="24" viewBox="0 0 24 24" fill="none" xmlns="http://www.w3.org/2000/svg">
<path d="M8.08198 15.918V11.2164C8.08198 10.7836 8.43281 10.4328 8.86559 10.4328H14.632L13.2209 8.55183C12.9614 8.20562 13.0316 7.71488 13.3778 7.45524C13.724 7.19569 14.2147 7.26594 14.4744 7.61212L16.8252 10.7465C17.034 11.0251 17.034 11.4077 16.8252 11.6863L14.4744 14.8207C14.2147 15.1668 13.724 15.2371 13.3778 14.9775C13.0316 14.7179 12.9614 14.2272 13.2209 13.881L14.632 12H9.64919V15.918C9.64919 16.3508 10.2163 16.7247 9.78353 16.7247C9.35076 16.7247 8.08198 16.3508 8.08198 15.918Z" fill="white"/>
<path fill-rule="evenodd" clip-rule="evenodd" d="M23.0818 14.2164L14.2163 23.0818C13.0305 24.2676 11.1308 24.3049 9.90041 23.1933L9.78353 23.0818L0.918051 14.2164C-0.306017 12.9923 -0.306017 11.0077 0.918051 9.78363L9.78353 0.918152L9.90041 0.806684C11.1308 -0.304911 13.0305 -0.267626 14.2163 0.918152L23.0818 9.78363L23.1932 9.90051C24.2689 11.0912 24.2689 12.9088 23.1932 14.0995L23.0818 14.2164ZM21.9736 13.1082L13.1081 21.9737C12.4961 22.5857 11.5038 22.5857 10.8917 21.9737L2.02624 13.1082C1.4142 12.4962 1.4142 11.5038 2.02624 10.8918L10.8917 2.02634C11.5038 1.4143 12.4961 1.4143 13.1081 2.02634L21.9736 10.8918C22.5856 11.5038 22.5856 12.4962 21.9736 13.1082Z" fill="white"/>
</svg>
