<svg xmlns="http://www.w3.org/2000/svg" width="68" height="32" viewBox="0 0 68 32" fill="none">
    <path
        d="M8.21009 10.3363C10.0412 10.3363 11.5638 10.5925 12.7779 11.105C13.992 11.6175 14.9026 12.3222 15.5096 13.2191C16.1167 14.116 16.4202 15.1459 16.4202 16.3089C16.4202 16.9396 16.3257 17.5507 16.1366 18.1421C15.9475 18.7235 15.6489 19.2705 15.2409 19.783C14.8329 20.2857 14.3055 20.7292 13.6586 21.1136C13.0118 21.4881 12.2355 21.7788 11.3299 21.9858C10.4343 22.2026 9.39434 22.3111 8.21009 22.3111C7.36421 22.3111 6.58798 22.2519 5.88141 22.1336C5.1848 22.0252 4.55287 21.8725 3.98563 21.6754C3.41839 21.4684 2.91583 21.222 2.47796 20.9362C2.05004 20.6504 1.67685 20.335 1.3584 19.99C1.0499 19.6352 0.791155 19.2607 0.58217 18.8665C0.383138 18.4722 0.233863 18.0583 0.134347 17.6246C0.0447823 17.191 0 16.7524 0 16.3089C0 15.7274 0.0746372 15.1755 0.223912 14.6531C0.383138 14.1307 0.612025 13.6478 0.910574 13.2043C1.21907 12.7608 1.59724 12.3666 2.04506 12.0216C2.50284 11.6668 3.03525 11.3662 3.6423 11.1198C4.24935 10.8635 4.93103 10.6714 5.68736 10.5432C6.45363 10.4053 7.29455 10.3363 8.21009 10.3363ZM8.22502 15.0375C7.87672 15.0375 7.57817 15.0769 7.32938 15.1557C7.09054 15.2247 6.89648 15.3233 6.74721 15.4514C6.60788 15.5697 6.50339 15.7077 6.43373 15.8654C6.37402 16.0132 6.34416 16.166 6.34416 16.3237C6.34416 16.5306 6.40387 16.7327 6.52329 16.9298C6.64271 17.1269 6.84175 17.2895 7.12039 17.4177C7.39904 17.5458 7.76725 17.6098 8.22502 17.6098C8.49372 17.6098 8.72758 17.5852 8.92661 17.5359C9.1356 17.4866 9.30975 17.4226 9.44907 17.3437C9.59835 17.255 9.71777 17.1565 9.80733 17.0481C9.90685 16.9298 9.97651 16.8115 10.0163 16.6932C10.0561 16.5651 10.076 16.437 10.076 16.3089C10.076 16.161 10.0412 16.0132 9.97153 15.8654C9.91183 15.7175 9.81231 15.5845 9.67299 15.4662C9.53366 15.3381 9.34458 15.2346 9.10574 15.1557C8.8669 15.0769 8.57333 15.0375 8.22502 15.0375Z"
        fill="url(#paint0_linear_143_568)" />
    <path
        d="M16.8698 10.7798H27.6623C28.538 10.7798 29.2645 10.9375 29.8417 11.2529C30.4189 11.5584 30.8518 11.9575 31.1404 12.4503C31.429 12.9333 31.5733 13.4458 31.5733 13.9878C31.5733 14.5496 31.4141 15.0966 31.0956 15.6288C30.7871 16.1512 30.3144 16.5799 29.6775 16.915C29.0506 17.2501 28.2644 17.4177 27.319 17.4177C27.2792 17.4177 27.1797 17.4177 27.0204 17.4177C26.8612 17.4177 26.697 17.4177 26.5278 17.4177C26.3686 17.4177 26.2641 17.4177 26.2143 17.4177C26.2143 17.4177 26.2143 17.4226 26.2143 17.4324C26.2143 17.4423 26.2143 17.4472 26.2143 17.4472C26.2143 17.4472 26.2143 17.4521 26.2143 17.462C26.2143 17.462 26.2143 17.4669 26.2143 17.4768H29.6029L31.9017 21.8675H24.8112C24.6221 21.3649 24.428 20.8622 24.229 20.3596C24.0399 19.857 23.8459 19.3543 23.6468 18.8517C23.4577 18.349 23.2637 17.8464 23.0647 17.3437H24.7962C24.9953 17.3437 25.1694 17.3142 25.3187 17.255C25.4779 17.1959 25.6073 17.1171 25.7068 17.0185C25.8063 16.9199 25.881 16.8115 25.9307 16.6932C25.9805 16.5651 26.0054 16.437 26.0054 16.3089C26.0054 16.1315 25.9606 15.9639 25.871 15.8062C25.7814 15.6485 25.6471 15.5204 25.468 15.4219C25.2888 15.3233 25.0649 15.274 24.7962 15.274H23.0945C23.0945 15.274 23.0895 15.2789 23.0796 15.2888C23.0796 15.2888 23.0746 15.2888 23.0647 15.2888C23.0647 15.2888 23.0647 15.2937 23.0647 15.3036C23.0647 15.9442 23.0647 16.4173 23.0647 16.7228C23.0647 17.0185 23.0647 17.2058 23.0647 17.2846C23.0647 17.3536 23.0647 17.3782 23.0647 17.3585C23.0647 17.3585 23.0647 17.4127 23.0647 17.5211C23.0647 17.6197 23.0647 17.7577 23.0647 17.9351C23.0647 18.1125 23.0647 18.3145 23.0647 18.5412C23.0647 18.8665 23.0647 19.2262 23.0647 19.6204C23.0647 20.0147 23.0647 20.4089 23.0647 20.8031C23.0647 21.1875 23.0647 21.5423 23.0647 21.8675H16.8698C16.8698 21.2368 16.8698 20.606 16.8698 19.9752C16.8698 19.3346 16.8698 18.6989 16.8698 18.0681C16.8698 17.4374 16.8698 16.8066 16.8698 16.1758C16.8698 15.5352 16.8698 14.8995 16.8698 14.2687C16.8698 13.6872 16.8698 13.1057 16.8698 12.5242C16.8698 11.9428 16.8698 11.3613 16.8698 10.7798Z"
        fill="url(#paint1_linear_143_568)" />
    <path
        d="M32.2491 10.7798H43.997C44.6638 10.7798 45.2161 10.9079 45.654 11.1641C46.0918 11.4105 46.4202 11.7309 46.6392 12.1251C46.8681 12.5193 46.9825 12.9333 46.9825 13.3669C46.9825 13.8006 46.8681 14.2244 46.6392 14.6383C46.4103 15.0424 46.062 15.3726 45.5942 15.6288C45.1365 15.8851 44.5593 16.0132 43.8627 16.0132C43.8627 16.0132 43.8577 16.0132 43.8477 16.0132C43.8477 16.0132 43.8477 16.0181 43.8477 16.028C43.8577 16.028 43.8627 16.028 43.8627 16.028C44.6688 16.028 45.3355 16.1709 45.8629 16.4567C46.3904 16.7425 46.7835 17.1072 47.0422 17.5507C47.301 17.9942 47.4303 18.4624 47.4303 18.9552C47.4303 19.3198 47.3557 19.6746 47.2064 20.0196C47.0671 20.3645 46.8531 20.6799 46.5645 20.9657C46.2759 21.2417 45.9177 21.4635 45.4898 21.631C45.0618 21.7887 44.5643 21.8675 43.997 21.8675H32.2491C32.2491 21.1973 32.2491 20.5321 32.2491 19.8717C32.2491 19.2015 32.2491 18.5314 32.2491 17.8612C32.2491 17.191 32.2491 16.5257 32.2491 15.8654C32.2491 15.1952 32.2491 14.525 32.2491 13.8548C32.2491 13.3423 32.2491 12.8298 32.2491 12.3173C32.2491 11.8048 32.2491 11.2923 32.2491 10.7798ZM38.1305 16.6045C38.1305 16.713 38.1305 16.8214 38.1305 16.9298C38.1305 17.0382 38.1305 17.1466 38.1305 17.255C38.1305 17.3339 38.1305 17.4127 38.1305 17.4916C38.1305 17.5606 38.1305 17.6296 38.1305 17.6985C38.1305 17.7675 38.1305 17.8365 38.1305 17.9055C38.1305 17.9154 38.1305 17.9203 38.1305 17.9203C38.1305 17.9203 38.1355 17.9203 38.1455 17.9203H40.2652C40.5338 17.9203 40.7329 17.8513 40.8622 17.7133C41.0016 17.5753 41.0712 17.4177 41.0712 17.2402C41.0712 17.1515 41.0563 17.0727 41.0265 17.0037C40.9966 16.9249 40.9518 16.8559 40.8921 16.7967C40.8423 16.7277 40.7727 16.6785 40.6831 16.6489C40.6035 16.6095 40.509 16.5898 40.3995 16.5898H38.1455C38.1455 16.5898 38.1405 16.5947 38.1305 16.6045ZM38.1455 14.52C38.1355 14.52 38.1305 14.525 38.1305 14.5348C38.1305 14.594 38.1305 14.663 38.1305 14.7418C38.1305 14.8108 38.1305 14.8847 38.1305 14.9636C38.1305 15.0325 38.1305 15.1065 38.1305 15.1853C38.1305 15.2937 38.1305 15.4071 38.1305 15.5253C38.1305 15.6338 38.1305 15.7372 38.1305 15.8358C38.1305 15.8457 38.1305 15.8506 38.1305 15.8506C38.1305 15.8506 38.1355 15.8506 38.1455 15.8506H40.1905C40.3696 15.8506 40.5189 15.821 40.6383 15.7619C40.7578 15.6929 40.8473 15.6091 40.907 15.5106C40.9667 15.4021 40.9966 15.2888 40.9966 15.1705C40.9966 15.003 40.9369 14.8551 40.8175 14.727C40.708 14.589 40.5438 14.52 40.3249 14.52H38.1455Z"
        fill="url(#paint2_linear_143_568)" />
    <path
        d="M47.8617 21.8675C47.8617 21.1579 47.8617 20.4483 47.8617 19.7387C47.8617 19.0291 47.8617 18.3195 47.8617 17.6098C47.8617 16.9002 47.8617 16.1906 47.8617 15.481C47.8617 14.7714 47.8617 14.0618 47.8617 13.3521C47.8617 12.9185 47.8617 12.4898 47.8617 12.066C47.8617 11.6323 47.8617 11.2036 47.8617 10.7798H54.0566C54.0566 11.7358 54.0566 12.6918 54.0566 13.6478C54.0566 14.594 54.0566 15.5451 54.0566 16.5011C54.0566 17.0924 54.0566 17.6887 54.0566 18.2899C54.0566 18.8812 54.0566 19.4775 54.0566 20.0787C54.0566 20.6701 54.0566 21.2663 54.0566 21.8675H47.8617Z"
        fill="url(#paint3_linear_143_568)" />
    <path
        d="M68 10.7798V15.274H64.4025C64.4025 15.274 64.3975 15.2789 64.3876 15.2888C64.3876 15.2888 64.3826 15.2888 64.3726 15.2888C64.3726 15.2888 64.3726 15.2937 64.3726 15.3036C64.3726 15.7372 64.3726 16.1758 64.3726 16.6193C64.3726 17.053 64.3726 17.4916 64.3726 17.9351C64.3726 18.3687 64.3726 18.8073 64.3726 19.2508C64.3726 19.6845 64.3726 20.1231 64.3726 20.5666C64.3726 21.0002 64.3726 21.4339 64.3726 21.8675H58.1777C58.1777 21.1382 58.1777 20.4089 58.1777 19.6796C58.1777 18.9502 58.1777 18.2209 58.1777 17.4916C58.1777 16.7622 58.1777 16.0329 58.1777 15.3036C58.1777 15.2937 58.1728 15.2888 58.1628 15.2888C58.1628 15.2789 58.1578 15.274 58.1479 15.274H54.5504V10.7798H68Z"
        fill="url(#paint4_linear_143_568)" />
    <path
        d="M33.1988 0C46.295 0 57.3249 1.96634 60.6377 4.64306C55.0855 2.24514 44.8755 1.68421 33.1988 1.68421C21.5219 1.68421 11.3117 2.24508 5.75951 4.64306C9.07212 1.96626 20.1023 0 33.1988 0Z"
        fill="url(#paint5_linear_143_568)" />
    <path
        d="M60.6461 3.05296C60.7234 2.95077 60.8854 2.98064 60.9203 3.1035L61.1486 3.90646C61.1624 3.95525 61.1997 3.99415 61.2481 4.0105L62.0454 4.27949C62.1674 4.32064 62.1888 4.48248 62.0816 4.55334L61.381 5.01646C61.3385 5.0446 61.3126 5.09169 61.3119 5.14236L61.2999 5.97646C61.2981 6.10408 61.1493 6.17423 61.0481 6.09517L60.3869 5.57843C60.3467 5.54704 60.2935 5.53723 60.2447 5.55221L59.44 5.79872C59.3169 5.83643 59.2035 5.71796 59.2482 5.59823L59.5401 4.81575C59.5578 4.7682 59.5508 4.71506 59.5213 4.67364L59.0359 3.9919C58.9616 3.88758 59.0404 3.74421 59.1692 3.74928L60.0108 3.78241C60.0619 3.78442 60.1108 3.76139 60.1414 3.72081L60.6461 3.05296Z"
        fill="url(#paint6_linear_143_568)" />
    <path
        d="M34.7115 32C21.6152 32 10.5854 30.0337 7.27256 27.3569C12.8248 29.7549 23.0348 30.3158 34.7115 30.3158C46.3884 30.3158 56.5986 29.7549 62.1508 27.3569C58.8382 30.0337 47.808 32 34.7115 32Z"
        fill="url(#paint7_linear_143_568)" />
    <path
        d="M7.26415 28.947C7.18693 29.0492 7.02491 29.0194 6.98999 28.8965L6.76173 28.0935C6.74786 28.0448 6.71064 28.0058 6.66219 27.9895L5.8649 27.7205C5.74291 27.6794 5.72152 27.5175 5.82871 27.4467L6.52926 26.9835C6.57183 26.9554 6.59769 26.9083 6.59841 26.8576L6.61034 26.0235C6.61217 25.8959 6.76097 25.8258 6.86214 25.9048L7.52337 26.4216C7.56354 26.453 7.61675 26.4628 7.66564 26.4478L8.47031 26.2013C8.59343 26.1636 8.70678 26.282 8.66212 26.4018L8.37022 27.1843C8.35249 27.2318 8.35951 27.2849 8.389 27.3264L8.87438 28.0081C8.94865 28.1124 8.8699 28.2558 8.74113 28.2507L7.89951 28.2176C7.84837 28.2156 7.79951 28.2386 7.76884 28.2792L7.26415 28.947Z"
        fill="url(#paint8_linear_143_568)" />
    <defs>
        <linearGradient id="paint0_linear_143_568" x1="0" y1="16" x2="68" y2="16" gradientUnits="userSpaceOnUse">
            <stop stop-color="#458EFF" />
            <stop offset="1" stop-color="#2830E2" />
        </linearGradient>
        <linearGradient id="paint1_linear_143_568" x1="0" y1="16" x2="68" y2="16" gradientUnits="userSpaceOnUse">
            <stop stop-color="#458EFF" />
            <stop offset="1" stop-color="#2830E2" />
        </linearGradient>
        <linearGradient id="paint2_linear_143_568" x1="0" y1="16" x2="68" y2="16" gradientUnits="userSpaceOnUse">
            <stop stop-color="#458EFF" />
            <stop offset="1" stop-color="#2830E2" />
        </linearGradient>
        <linearGradient id="paint3_linear_143_568" x1="0" y1="16" x2="68" y2="16" gradientUnits="userSpaceOnUse">
            <stop stop-color="#458EFF" />
            <stop offset="1" stop-color="#2830E2" />
        </linearGradient>
        <linearGradient id="paint4_linear_143_568" x1="0" y1="16" x2="68" y2="16" gradientUnits="userSpaceOnUse">
            <stop stop-color="#458EFF" />
            <stop offset="1" stop-color="#2830E2" />
        </linearGradient>
        <linearGradient id="paint5_linear_143_568" x1="0" y1="16" x2="68" y2="16" gradientUnits="userSpaceOnUse">
            <stop stop-color="#458EFF" />
            <stop offset="1" stop-color="#2830E2" />
        </linearGradient>
        <linearGradient id="paint6_linear_143_568" x1="0" y1="16" x2="68" y2="16" gradientUnits="userSpaceOnUse">
            <stop stop-color="#458EFF" />
            <stop offset="1" stop-color="#2830E2" />
        </linearGradient>
        <linearGradient id="paint7_linear_143_568" x1="0" y1="16" x2="68" y2="16" gradientUnits="userSpaceOnUse">
            <stop stop-color="#458EFF" />
            <stop offset="1" stop-color="#2830E2" />
        </linearGradient>
        <linearGradient id="paint8_linear_143_568" x1="0" y1="16" x2="68" y2="16" gradientUnits="userSpaceOnUse">
            <stop stop-color="#458EFF" />
            <stop offset="1" stop-color="#2830E2" />
        </linearGradient>
    </defs>
</svg>