<svg width="24" height="25" viewBox="0 0 24 25" fill="none" xmlns="http://www.w3.org/2000/svg">
<path fill-rule="evenodd" clip-rule="evenodd" d="M7.79226 4.25879C10.9047 3.91374 14.0458 3.91374 17.1583 4.25879C18.9853 4.46279 20.4603 5.90179 20.6743 7.73879C21.0443 10.8958 21.0443 14.0848 20.6743 17.2418C20.4593 19.0788 18.9843 20.5168 17.1583 20.7218C14.0458 21.0669 10.9047 21.0669 7.79226 20.7218C5.96526 20.5168 4.49026 19.0788 4.27626 17.2418C3.90791 14.0848 3.90791 10.8958 4.27626 7.73879C4.49026 5.90179 5.96626 4.46279 7.79226 4.25879ZM16.9923 5.74879C13.9901 5.41602 10.9604 5.41602 7.95826 5.74879C7.4025 5.81045 6.88376 6.05767 6.48584 6.45051C6.08791 6.84335 5.83405 7.35887 5.76526 7.91379C5.40959 10.9548 5.40959 14.0268 5.76526 17.0678C5.83426 17.6225 6.08821 18.1378 6.48612 18.5305C6.88402 18.9231 7.40265 19.1702 7.95826 19.2318C10.9353 19.5638 14.0153 19.5638 16.9923 19.2318C17.5477 19.17 18.0661 18.9228 18.4638 18.5302C18.8615 18.1376 19.1153 17.6224 19.1843 17.0678C19.5399 14.0268 19.5399 10.9548 19.1843 7.91379C19.1151 7.35939 18.8612 6.84444 18.4635 6.45202C18.0658 6.05959 17.5475 5.81257 16.9923 5.75079" fill="white"/>
<path d="M7.00708 12.49C7.00708 12.2829 7.0861 12.0844 7.22675 11.938C7.3674 11.7916 7.55817 11.7093 7.75708 11.7093H11.2501V8.07361C11.2501 7.86657 11.3291 7.66801 11.4698 7.52161C11.6104 7.37521 11.8012 7.29297 12.0001 7.29297C12.199 7.29297 12.3898 7.37521 12.5304 7.52161C12.6711 7.66801 12.7501 7.86657 12.7501 8.07361V11.7093H16.2431C16.442 11.7093 16.6328 11.7916 16.7734 11.938C16.9141 12.0844 16.9931 12.2829 16.9931 12.49C16.9931 12.697 16.9141 12.8956 16.7734 13.042C16.6328 13.1884 16.442 13.2706 16.2431 13.2706H12.7501V16.9063C12.7501 17.1134 12.6711 17.3119 12.5304 17.4583C12.3898 17.6047 12.199 17.687 12.0001 17.687C11.8012 17.687 11.6104 17.6047 11.4698 17.4583C11.3291 17.3119 11.2501 17.1134 11.2501 16.9063V13.2706H7.75708C7.55817 13.2706 7.3674 13.1884 7.22675 13.042C7.0861 12.8956 7.00708 12.697 7.00708 12.49Z" fill="white"/>
</svg>
