<svg width="26" height="26" viewBox="0 0 26 26" fill="none" xmlns="http://www.w3.org/2000/svg">
<path d="M5.6418 14.2506L13.7749 22.3938C14.1068 22.7262 14.2662 23.114 14.2529 23.5572C14.2396 24.0003 14.0664 24.3881 13.7334 24.7205C13.4014 25.0252 13.0141 25.1847 12.5715 25.1991C12.1289 25.2135 11.7416 25.054 11.4096 24.7205L0.45489 13.7521C0.288909 13.5859 0.171062 13.4058 0.10135 13.212C0.0316383 13.0181 -0.00211094 12.8103 0.000102143 12.5887C0.00231522 12.3672 0.0371708 12.1594 0.10467 11.9655C0.172169 11.7717 0.289463 11.5916 0.45655 11.4254L11.4113 0.457017C11.7156 0.152338 12.0963 0 12.5533 0C13.0103 0 13.4042 0.152338 13.735 0.457017C14.067 0.789393 14.233 1.18437 14.233 1.64194C14.233 2.09951 14.067 2.49393 13.735 2.8252L5.6418 10.9269H24.1902C24.6605 10.9269 25.0549 11.0864 25.3736 11.4055C25.6923 11.7246 25.8511 12.119 25.85 12.5887C25.8489 13.0585 25.6896 13.4535 25.372 13.7737C25.0544 14.0939 24.6605 14.2528 24.1902 14.2506H5.6418Z" fill="#1E1E1E"/>
</svg>
