<svg xmlns="http://www.w3.org/2000/svg" width="24" height="24" viewBox="0 0 24 24" fill="none">
    <path
        d="M12 17C12 14.75 13.5 12.87 15.54 12.24C14.21 11.46 12.66 11 11 11C6.03 11 2 15.03 2 20H13.02C12.39 19.16 12 18.13 12 17Z"
        stroke="white" stroke-width="2" stroke-miterlimit="10" stroke-linecap="round" stroke-linejoin="round" />
    <path
        d="M11 11C13.4853 11 15.5 8.98528 15.5 6.5C15.5 4.01472 13.4853 2 11 2C8.51472 2 6.5 4.01472 6.5 6.5C6.5 8.98528 8.51472 11 11 11Z"
        stroke="white" stroke-width="2" stroke-miterlimit="10" stroke-linecap="round" stroke-linejoin="round" />
    <path
        d="M17 22C19.7614 22 22 19.7614 22 17C22 14.2386 19.7614 12 17 12C14.2386 12 12 14.2386 12 17C12 19.7614 14.2386 22 17 22Z"
        stroke="white" stroke-width="2" stroke-miterlimit="10" stroke-linecap="round" stroke-linejoin="round" />
    <path d="M14 17H20" stroke="white" stroke-width="2" stroke-miterlimit="10" stroke-linejoin="round" />
    <path d="M17 14V20" stroke="white" stroke-width="2" stroke-miterlimit="10" stroke-linejoin="round" />
</svg>