<svg xmlns="http://www.w3.org/2000/svg" width="32" height="32" viewBox="0 0 32 32" fill="none">
  <path d="M0 4C0 1.79086 1.79086 0 4 0H28C30.2091 0 32 1.79086 32 4V28C32 30.2091 30.2091 32 28 32H4C1.79086 32 0 30.2091 0 28V4Z" fill="white"/>
  <path d="M15.8251 4C12.9647 4 10.5862 4.43218 8.68968 5.29654C6.79312 6.1609 5.3707 7.34939 4.42242 8.86202C3.47414 10.3747 3 12.1117 3 14.0731C3 15.1369 3.14768 16.1675 3.44305 17.1649C3.73841 18.1456 4.20478 19.0681 4.84215 19.9325C5.47952 20.7802 6.30343 21.5282 7.3139 22.1765C8.32436 22.8081 9.53691 23.2985 10.9516 23.6476C12.3507 24.0132 15.0675 24.1961 15.8251 24.1961C16.4736 24.1961 16.4736 16.2673 15.8018 16.2673C15.3821 16.2673 15.0167 16.2257 14.7058 16.1426C14.3794 16.0595 14.1073 15.9514 13.8897 15.8185C13.6565 15.6689 13.4699 15.5026 13.33 15.3198C13.1746 15.1203 13.0658 14.9209 13.0036 14.7214C12.9414 14.5053 12.9103 14.2892 12.9103 14.0731C12.9103 13.8238 12.9647 13.5744 13.0735 13.3251C13.1668 13.0758 13.3223 12.8514 13.5399 12.6519C13.7575 12.4358 14.0529 12.2613 14.426 12.1283C14.7991 11.9953 15.2577 11.9288 15.8018 11.9288C16.3459 11.9288 16.8122 11.9953 17.2009 12.1283C17.574 12.2447 17.8771 12.4109 18.1103 12.627C18.3279 12.8264 18.4912 13.0592 18.6 13.3251C18.6933 13.5744 18.7399 14.098 18.7399 14.098C18.7399 15.0488 28.6502 15.0538 28.6502 14.0731C28.6502 13.0924 28.5336 12.1615 28.3004 11.2806C28.0517 10.3996 27.6942 9.58509 27.2278 8.83709C26.7459 8.08909 26.1551 7.42419 25.4556 6.84241C24.7405 6.24401 23.9088 5.73703 22.9605 5.32147C22.0122 4.88929 20.9474 4.56516 19.7659 4.34907C18.5689 4.11636 17.2553 4 15.8251 4Z" fill="url(#paint0_linear_347_1122)"/>
  <path fill-rule="evenodd" clip-rule="evenodd" d="M17.778 16.3249H26.4621C26.955 16.3249 27.3632 16.4483 27.6869 16.695C28.0106 16.9322 28.2533 17.2406 28.4152 17.6201C28.5844 17.9997 28.669 18.3982 28.669 18.8158C28.669 19.2333 28.5844 19.6413 28.4152 20.0398C28.246 20.4289 27.9885 20.7468 27.6428 20.9935C27.3044 21.2402 26.8777 21.3635 26.3628 21.3635H26.3517V21.3778H26.3628C26.9586 21.3778 27.4515 21.5154 27.8414 21.7906C28.2313 22.0657 28.5218 22.4168 28.7131 22.8438C28.9044 23.2708 29 23.7216 29 24.196C29 24.5471 28.9448 24.8887 28.8345 25.2208C28.7315 25.5529 28.5733 25.8566 28.36 26.1318C28.1467 26.3974 27.8818 26.611 27.5655 26.7723C27.2492 26.9241 26.8814 27 26.4621 27H17.778V25.0785V23.1427V21.2212V19.2855V17.174V16.3249ZM22.1256 22.246V21.9329L22.1366 21.9186H23.8028C23.8837 21.9186 23.9536 21.9376 24.0125 21.9756C24.0787 22.0041 24.1301 22.0515 24.1669 22.1179C24.2111 22.1749 24.2442 22.2413 24.2662 22.3172C24.2883 22.3836 24.2994 22.4595 24.2994 22.5449C24.2994 22.7157 24.2479 22.8675 24.1449 23.0004C24.0492 23.1332 23.9021 23.1997 23.7035 23.1997H22.1366H22.1256V23.1854V22.9862V22.7869V22.5592V22.246ZM22.1256 19.9402C22.1256 19.9307 22.1293 19.926 22.1366 19.926H23.7476C23.9095 19.926 24.0308 19.9924 24.1118 20.1252C24.2 20.2486 24.2442 20.3909 24.2442 20.5522C24.2442 20.6661 24.2221 20.7752 24.178 20.8796C24.1338 20.9745 24.0676 21.0552 23.9793 21.1216C23.8911 21.1785 23.7807 21.207 23.6483 21.207H22.1366H22.1256V21.1927V20.8938V20.5665V20.353V20.1395V19.9402Z" fill="url(#paint1_linear_347_1122)"/>
  <defs>
    <linearGradient id="paint0_linear_347_1122" x1="0" y1="16" x2="32" y2="16" gradientUnits="userSpaceOnUse">
      <stop stop-color="#2A83FF"/>
      <stop offset="0.2003" stop-color="#2A7FFF"/>
      <stop offset="0.4165" stop-color="#2A72FF"/>
      <stop offset="0.64" stop-color="#2A5CFF"/>
      <stop offset="0.8672" stop-color="#2A3EFF"/>
      <stop offset="1" stop-color="#2A29FF"/>
    </linearGradient>
    <linearGradient id="paint1_linear_347_1122" x1="0" y1="16" x2="32" y2="16" gradientUnits="userSpaceOnUse">
      <stop stop-color="#2A83FF"/>
      <stop offset="0.2003" stop-color="#2A7FFF"/>
      <stop offset="0.4165" stop-color="#2A72FF"/>
      <stop offset="0.64" stop-color="#2A5CFF"/>
      <stop offset="0.8672" stop-color="#2A3EFF"/>
      <stop offset="1" stop-color="#2A29FF"/>
    </linearGradient>
  </defs>
</svg>